<svg width="192" height="192" viewBox="0 0 192 192" fill="none" xmlns="http://www.w3.org/2000/svg">
<g clip-path="url(#clip0)">
<path d="M166.857 57.7759C152.981 41.8668 128.988 34.7235 108.977 42.0922C104.735 43.6539 87.2648 43.6539 83.0238 42.0922C63.0116 34.7235 39.0186 41.8668 25.1434 57.7759C8.66634 76.6688 3.53094 101.937 7.05311 125.754C11.5326 156.034 28.4375 176.78 59.7559 186.099C77.2439 191.303 83.978 188.512 96 188.512C108.022 188.512 114.756 191.303 132.244 186.099C163.562 176.78 180.467 156.034 184.947 125.754C188.469 101.937 183.334 76.6688 166.857 57.7759Z" fill="#E22626"/>
<path d="M166.856 57.7759C152.981 41.8668 128.988 34.7235 108.977 42.0922C104.735 43.6539 87.2647 43.6539 83.0237 42.0922C76.4374 39.6668 69.4218 38.8428 62.4753 39.3566C73.895 41.8413 74.2911 56.3032 110.086 53.6488C143.349 51.1829 167.909 100.564 148.983 141.227C137.228 166.483 97.1066 183.575 44.4397 180.044C49.105 182.41 54.192 184.444 59.7558 186.099C77.2443 191.303 83.9779 188.512 95.9999 188.512C108.022 188.512 114.756 191.303 132.244 186.099C163.562 176.78 180.467 156.034 184.947 125.753C188.469 101.937 183.334 76.6688 166.856 57.7759Z" fill="#C4201F"/>
<path d="M95.3514 34.511C92.05 26.1824 83.8666 21.1537 74.9519 20.262C79.2414 24.3953 82.37 27.9169 83.8125 35.1294C79.1363 32.501 66.5036 30.5958 59.5702 35.5401C68.7973 36.5755 73.9129 38.638 79.2789 44.814C79.2789 44.814 75.5225 48.293 74.7458 52.1285C74.1919 54.8646 75.0269 61.1344 75.0269 61.1344C80.7214 53.0557 94.3212 57.177 94.9397 48.7287C94.9397 48.7287 108.951 51.4075 114.309 61.0922C115.339 48.3169 109.157 46.0499 109.157 46.0499C115.064 41.7916 126.123 44.814 132.43 46.7714C128.321 40.6984 119.294 35.5354 111.056 36.6468C114.366 30.6384 120.251 27.2667 127.077 26.5968C116.756 23.0465 102.097 23.1995 95.3514 34.511Z" fill="#09873E"/>
<path d="M102.131 1.00849C90.9605 9.83264 92.1677 31.2847 93.4868 41.5441C94.2926 41.9454 95.2916 42.0381 96.4072 41.3244C96.4421 35.1078 96.909 25.4294 99.2183 18.9478C102.544 9.60984 107.788 6.79565 107.788 6.79565C107.788 0.528009 102.131 1.00849 102.131 1.00849Z" fill="#057A37"/>
<path d="M85.9415 165.393H53.5581V161.681C54.8381 160.998 56.3314 160.401 58.038 159.889C59.7447 159.377 61.75 158.95 64.0539 158.609V82.7063C62.3473 82.365 60.598 81.9383 58.806 81.4263C57.0141 80.829 55.2648 80.189 53.5581 79.5064V75.7944H138.036V79.5064C136.415 80.3597 134.709 81.0423 132.917 81.5543C131.125 81.981 129.333 82.365 127.541 82.7063V158.609C130.954 159.035 134.453 160.059 138.036 161.681V165.393H105.653V161.681C107.53 160.486 110.73 159.462 115.253 158.609V82.4503H76.3417V158.609C79.6696 159.291 82.8695 160.315 85.9415 161.681V165.393Z" fill="white"/>
</g>
<defs>
<clipPath id="clip0">
<rect width="192" height="192" fill="white"/>
</clipPath>
</defs>
</svg>
